<svg width="42" height="42" viewBox="0 0 42 42" fill="none" xmlns="http://www.w3.org/2000/svg">
<path d="M35.6048 4.29419H6.46191L9.03334 33.437L21.0333 36.8656L33.0333 33.437L35.6048 4.29419Z" fill="#0277BD"/>
<path d="M21.0337 6.8656V34.2085L30.6337 31.4656L32.7765 6.8656H21.0337Z" fill="#039BE5"/>
<path d="M28.8337 11.1512H21.0337V14.5798H25.2337L24.9765 18.0084H21.0337V21.437H24.8051L24.548 25.2941L21.0337 26.4941V30.0941L27.8051 27.8655L28.4051 18.0084L28.8337 11.1512Z" fill="#DAD8D8"/>
<path d="M21.0337 11.1512V14.5798H13.4051L13.1479 11.1512H21.0337ZM17.0908 18.0084L17.2622 21.437H21.0337V18.0084H17.0908ZM17.4337 23.1512H14.0051L14.2622 27.8655L21.0337 30.0941V26.4941L17.5194 25.2941L17.4337 23.1512Z" fill="#EEEEEE"/>
</svg>
