<svg width="25" height="37" viewBox="0 0 25 37" fill="none" xmlns="http://www.w3.org/2000/svg">
<path fill-rule="evenodd" clip-rule="evenodd" d="M12.1011 18.517C12.1011 15.1754 14.8099 12.4666 18.1515 12.4666C21.493 12.4666 24.2019 15.1754 24.2019 18.517C24.2019 21.8585 21.493 24.5674 18.1515 24.5674C14.8099 24.5674 12.1011 21.8585 12.1011 18.517Z" fill="#1ABCFE"/>
<path fill-rule="evenodd" clip-rule="evenodd" d="M0 30.6178C0 27.2762 2.70887 24.5674 6.05042 24.5674L12.1008 24.5674L12.1008 30.6178C12.1008 33.9594 9.39197 36.6682 6.05042 36.6682C2.70887 36.6682 0 33.9594 0 30.6178Z" fill="#0ACF83"/>
<path fill-rule="evenodd" clip-rule="evenodd" d="M12.1011 0.365723L12.1011 12.4666L18.1515 12.4666C21.493 12.4666 24.2019 9.7577 24.2019 6.41614C24.2019 3.07459 21.493 0.365723 18.1515 0.365723L12.1011 0.365723Z" fill="#FF7262"/>
<path fill-rule="evenodd" clip-rule="evenodd" d="M0 6.41614C0 9.7577 2.70887 12.4666 6.05042 12.4666H12.1008L12.1008 0.365723L6.05042 0.365723C2.70887 0.365723 0 3.07459 0 6.41614Z" fill="#F24E1E"/>
<path fill-rule="evenodd" clip-rule="evenodd" d="M0 18.517C0 21.8585 2.70887 24.5674 6.05042 24.5674H12.1008L12.1008 12.4666H6.05042C2.70887 12.4666 0 15.1754 0 18.517Z" fill="#A259FF"/>
</svg>
