<svg width="42" height="43" viewBox="0 0 42 43" fill="none" xmlns="http://www.w3.org/2000/svg">
<path d="M36.4995 19.9306L22.5281 5.95915C22.0995 5.53058 21.4995 5.27344 20.8995 5.27344C20.2995 5.27344 19.6995 5.53058 19.2709 5.95915L16.2709 8.95915L19.7852 12.4734C20.1281 12.302 20.4709 12.2163 20.8995 12.2163C22.3566 12.2163 23.4709 13.3306 23.4709 14.7877C23.4709 15.2163 23.3852 15.5592 23.2138 15.902L26.6423 19.3306C26.9852 19.1592 27.3281 19.0734 27.7566 19.0734C29.2138 19.0734 30.3281 20.1877 30.3281 21.6449C30.3281 23.102 29.2138 24.2163 27.7566 24.2163C26.2995 24.2163 25.1852 23.102 25.1852 21.6449C25.1852 21.2163 25.2709 20.8734 25.4423 20.5306L22.0138 17.102C21.9281 17.102 21.8423 17.1877 21.7566 17.1877V26.102C22.7852 26.4449 23.4709 27.3877 23.4709 28.502C23.4709 29.9591 22.3566 31.0734 20.8995 31.0734C19.4423 31.0734 18.3281 29.9591 18.3281 28.502C18.3281 27.3877 19.0138 26.4449 20.0423 26.102V17.102C19.0138 16.7592 18.3281 15.8163 18.3281 14.702C18.3281 14.2734 18.4138 13.9306 18.5852 13.5877L15.0709 10.0734L5.29948 19.9306C4.87091 20.3592 4.61377 20.9592 4.61377 21.5592C4.61377 22.1592 4.87091 22.7591 5.29948 23.1877L19.2709 37.1592C19.6995 37.5877 20.2995 37.8449 20.8995 37.8449C21.4995 37.8449 22.0995 37.5877 22.5281 37.1592L36.4995 23.1877C36.9281 22.7591 37.1852 22.1592 37.1852 21.5592C37.1852 20.9592 36.9281 20.3592 36.4995 19.9306Z" fill="#F4511E"/>
</svg>
