<svg width="42" height="42" viewBox="0 0 42 42" fill="none" xmlns="http://www.w3.org/2000/svg">
<path d="M21.0341 7.71045C28.6084 7.71045 34.7484 13.8504 34.7484 21.4247C34.7484 27.5139 30.7781 32.6733 25.2861 34.4636C25.2878 34.4585 25.2901 34.451 25.2901 34.451C25.2901 34.451 24.3644 34.0173 24.3838 33.243C24.4055 32.391 24.3838 30.4024 24.3838 29.6727C24.3838 28.4196 23.5907 27.5316 23.5907 27.5316C23.5907 27.5316 29.8101 27.6013 29.8101 20.9653C29.8101 18.4047 28.4718 17.0727 28.4718 17.0727C28.4718 17.0727 29.1747 14.339 28.2284 13.1802C27.1678 13.0659 25.2684 14.1939 24.457 14.7213C24.457 14.7213 23.1713 14.1944 21.0335 14.1944C18.8953 14.1944 17.6101 14.7213 17.6101 14.7213C16.7993 14.1944 14.8993 13.0659 13.8387 13.1802C12.8924 14.3396 13.5953 17.0727 13.5953 17.0727C13.5953 17.0727 12.257 18.4053 12.257 20.9653C12.257 27.6013 18.4764 27.5316 18.4764 27.5316C18.4764 27.5316 17.8495 28.2396 17.713 29.2807C17.2787 29.4282 16.6404 29.6099 16.1244 29.6099C14.7747 29.6099 13.7478 28.2979 13.3718 27.691C13.001 27.0922 12.2404 26.5899 11.5313 26.5899C11.0644 26.5899 10.8364 26.8236 10.8364 27.0905C10.8364 27.3573 11.4913 27.5436 11.9233 28.0385C12.8341 29.0819 12.8175 31.4287 16.0633 31.4287C16.4158 31.4287 17.1353 31.3419 17.6764 31.2693C17.673 32.0082 17.6724 32.7876 17.6838 33.243C17.7033 34.0173 16.7775 34.451 16.7775 34.451C16.7775 34.451 16.7798 34.4585 16.7815 34.4636C11.2901 32.6733 7.31982 27.5139 7.31982 21.4247C7.31982 13.8504 13.4598 7.71045 21.0341 7.71045Z" fill="black"/>
</svg>
