<svg width="42" height="42" viewBox="0 0 42 42" fill="none" xmlns="http://www.w3.org/2000/svg">
<path d="M37.3805 17.5797H35.9996V17.5086H20.5711V24.3657H30.2594C28.8459 28.3575 25.0479 31.2229 20.5711 31.2229C14.8908 31.2229 10.2854 26.6175 10.2854 20.9372C10.2854 15.2569 14.8908 10.6515 20.5711 10.6515C23.1931 10.6515 25.5785 11.6406 27.3948 13.2563L32.2437 8.40745C29.1819 5.55403 25.0865 3.79431 20.5711 3.79431C11.1039 3.79431 3.42822 11.47 3.42822 20.9372C3.42822 30.4043 11.1039 38.08 20.5711 38.08C30.0382 38.08 37.7139 30.4043 37.7139 20.9372C37.7139 19.7877 37.5956 18.6657 37.3805 17.5797Z" fill="#FFC107"/>
<path d="M5.40527 12.958L11.0376 17.0886C12.5616 13.3155 16.2524 10.6515 20.5716 10.6515C23.1936 10.6515 25.579 11.6406 27.3953 13.2563L32.2441 8.40745C29.1824 5.55403 25.087 3.79431 20.5716 3.79431C13.987 3.79431 8.2767 7.51174 5.40527 12.958Z" fill="#FF3D00"/>
<path d="M20.571 38.08C24.999 38.08 29.0224 36.3854 32.0644 33.6297L26.7587 29.14C25.0376 30.4437 22.8981 31.2228 20.571 31.2228C16.1121 31.2228 12.3261 28.3797 10.8999 24.412L5.30957 28.7191C8.14671 34.2708 13.9084 38.08 20.571 38.08Z" fill="#4CAF50"/>
<path d="M37.3807 17.5797H35.9999V17.5085H20.5713V24.3657H30.2596C29.5807 26.2831 28.3473 27.9365 26.7564 29.1408L26.759 29.1391L32.0647 33.6288C31.6893 33.97 37.7141 29.5085 37.7141 20.9371C37.7141 19.7877 37.5959 18.6657 37.3807 17.5797Z" fill="#1976D2"/>
</svg>
