<svg width="42" height="42" viewBox="0 0 42 42" fill="none" xmlns="http://www.w3.org/2000/svg">
<path d="M35.47 4.29419H6.32715L8.89858 33.437L20.8986 36.8656L32.8986 33.437L35.47 4.29419Z" fill="#E65100"/>
<path d="M20.8994 6.8656V34.2085L30.4994 31.4656L32.6423 6.8656H20.8994Z" fill="#FF6D00"/>
<path d="M20.8994 21.437V18.0084H28.2708L27.6708 27.8655L20.8994 30.0941V26.4941L24.4137 25.2941L24.6708 21.437H20.8994ZM28.528 14.5798L28.7851 11.1512H20.8994V14.5798H28.528Z" fill="#DAD8D8"/>
<path d="M20.8986 26.4941V30.0941L14.1272 27.8655L13.7843 23.1512H17.2129L17.3843 25.2941L20.8986 26.4941ZM16.6986 14.5798H20.8986V11.1512H13.0986L13.6986 21.437H20.8986V18.0084H16.9558L16.6986 14.5798Z" fill="#EEEEEE"/>
</svg>
