<svg width="42" height="43" viewBox="0 0 42 43" fill="none" xmlns="http://www.w3.org/2000/svg">
<path d="M5.4707 36.874V6.01685H36.3278V36.874H5.4707Z" fill="#F7DF1E"/>
<path d="M25.6464 29.1142C26.2396 30.0776 26.8841 31.0008 28.2496 31.0008C29.3964 31.0008 29.9981 30.4308 29.9981 29.6422C29.9981 28.6985 29.3758 28.3634 28.1141 27.8139L27.4224 27.5191C25.4261 26.6722 24.0984 25.6111 24.0984 23.3697C24.0984 21.3039 25.6798 19.7319 28.151 19.7319C29.9107 19.7319 31.175 20.3414 32.087 21.9374L29.9321 23.3148C29.4581 22.4679 28.9456 22.1345 28.151 22.1345C27.3401 22.1345 26.8267 22.6462 26.8267 23.3148C26.8267 24.1411 27.341 24.4754 28.5281 24.9871L29.2198 25.2819C31.5727 26.2839 32.8996 27.3074 32.8996 29.6079C32.8996 32.0868 30.9418 33.4454 28.3138 33.4454C25.7433 33.4454 24.2836 32.1554 23.471 30.5585L25.6464 29.1142ZM15.7156 29.1845C16.1493 29.9611 16.8084 30.5585 17.7564 30.5585C18.6633 30.5585 19.1853 30.2002 19.1853 28.8074V19.7311H22.0421V29.2462C22.0421 32.1322 20.3681 33.4454 17.9236 33.4454C15.7147 33.4454 14.1204 31.9488 13.4707 30.5585L15.7156 29.1845Z" fill="#000001"/>
</svg>
