<svg width="42" height="26" viewBox="0 0 42 26" fill="none" xmlns="http://www.w3.org/2000/svg">
<path d="M21.3195 0.759033C15.8338 0.759033 12.4052 3.50103 11.0338 8.98503C13.0909 6.24303 15.4909 5.21532 18.2338 5.90018C19.7989 6.29103 20.9175 7.42675 22.156 8.68332C24.172 10.7293 26.506 13.0985 31.6052 13.0985C37.0909 13.0985 40.5195 10.3565 41.8909 4.8716C39.8338 7.6136 37.4338 8.64218 34.6909 7.95732C33.1266 7.56646 32.008 6.43075 30.7695 5.17418C28.7526 3.12732 26.4178 0.759033 21.3195 0.759033ZM11.0338 13.0985C5.54805 13.0985 2.11948 15.8405 0.748047 21.3253C2.80519 18.5833 5.20519 17.5547 7.94805 18.2405C9.51233 18.6322 10.6309 19.767 11.8695 21.0227C13.8863 23.0696 16.2212 25.4387 21.3195 25.4387C26.8052 25.4387 30.2338 22.6967 31.6052 17.2119C29.548 19.9539 27.148 20.9825 24.4052 20.2967C22.84 19.9059 21.7215 18.7702 20.4829 17.5145C18.4669 15.4676 16.1329 13.0985 11.0338 13.0985Z" fill="#00ACC1"/>
</svg>
