<svg width="28" height="23" viewBox="0 0 28 23" fill="none" xmlns="http://www.w3.org/2000/svg">
<path d="M7.19355 0.0462036C5.3633 0.0462036 3.73271 0.812215 2.50145 2.01119C1.30346 3.21017 0.538086 4.8421 0.538086 6.70718C0.538086 8.53894 1.30346 10.1709 2.50145 11.4032L13.849 22.7601L25.1966 11.4032C26.3946 10.2042 27.1599 8.57225 27.1599 6.70718C27.1599 4.87541 26.3946 3.24347 25.1966 2.01119C23.9986 0.812215 22.368 0.0462036 20.5045 0.0462036C18.6742 0.0462036 17.0436 0.812215 15.8124 2.01119C14.6144 3.21017 13.849 4.8421 13.849 6.70718C13.849 4.87541 13.0836 3.24347 11.8856 2.01119C10.6877 0.812215 9.05708 0.0462036 7.19355 0.0462036Z" fill="#DB8566"/>
</svg>
