<svg width="42" height="42" viewBox="0 0 42 42" fill="none" xmlns="http://www.w3.org/2000/svg">
<path d="M29.4948 2.50862C29.1752 2.51983 28.8563 2.60315 28.5707 2.75291C29.3154 3.12155 29.8408 3.84962 29.9272 4.71362C29.942 4.8173 29.9513 4.91183 29.9513 4.95791V37.8722C29.9513 38.8481 29.3807 39.6845 28.5595 40.0852C28.859 40.249 29.1934 40.3408 29.5398 40.3408C29.8468 40.3408 30.1364 40.2696 30.3981 40.1495L30.3997 40.1527C31.7228 39.4681 38.3381 36.0425 38.5816 35.9034C39.3493 35.4632 39.8256 34.6408 39.8256 33.7579V9.07219C39.8256 8.25098 39.4188 7.48706 38.7375 7.02791C38.4742 6.84935 30.4302 2.69344 30.4302 2.69344L30.4286 2.69666C30.1356 2.55883 29.8145 2.49741 29.4948 2.50862ZM27.4827 4.13505C27.2721 4.13505 27.0614 4.21525 26.9009 4.37612C26.9009 4.37612 22.1905 9.67334 16.9752 15.5329L23.1418 20.5777L28.3055 16.2288V4.95791C28.3055 4.74725 28.2249 4.53658 28.0645 4.37612C27.9036 4.21525 27.6932 4.13505 27.4827 4.13505ZM6.91126 9.89505C6.7829 9.89505 6.54415 9.89551 5.47609 10.39C4.88774 10.6624 2.83876 11.7384 2.83876 11.7384C2.56722 11.8857 2.34817 12.1163 2.1943 12.3829C2.25684 12.373 2.31894 12.3636 2.38394 12.3636H2.38555C2.93522 12.3636 3.27231 12.7472 3.39162 12.8715C3.39162 12.8715 26.6022 38.1553 26.9009 38.454C27.0614 38.6144 27.2704 38.695 27.4811 38.695C27.6917 38.695 27.9024 38.6144 28.0629 38.454C28.2233 38.2935 28.3055 38.0828 28.3055 37.8722V26.9034C28.3055 26.9034 8.17332 10.4493 8.01698 10.3225C7.71417 10.0477 7.32022 9.89505 6.91126 9.89505ZM2.13805 14.0093C2.04754 14.0093 1.97412 14.0835 1.97412 14.1749V29.4845C1.97412 29.5726 2.04597 29.6452 2.13484 29.6452C2.18092 29.6452 2.22175 29.6243 2.25055 29.5922L6.91126 24.4188V18.9625L2.25537 14.0575C2.22575 14.0279 2.18331 14.0093 2.13805 14.0093ZM10.4116 22.9081C10.4116 22.9081 3.33887 30.8487 3.25823 30.9293C3.03523 31.1523 2.72704 31.2893 2.38555 31.2893C2.32137 31.2893 2.25923 31.2815 2.19751 31.2717C2.36373 31.5605 2.60749 31.7986 2.90948 31.945L2.90626 31.9499C3.62215 32.3136 5.98469 33.5139 6.29573 33.6406C6.49157 33.7188 6.69814 33.7579 6.91126 33.7579C7.1968 33.7579 7.47907 33.6842 7.73251 33.5393C7.75144 33.5286 14.7509 27.6395 14.7509 27.6395L10.4116 22.9081Z" fill="black"/>
</svg>
